<svg width="20" height="20" viewBox="0 0 20 20" fill="none" xmlns="http://www.w3.org/2000/svg">
<path fill-rule="evenodd" clip-rule="evenodd" d="M12.9847 3.29676C11.5402 2.65314 9.92637 2.4937 8.38387 2.8422C6.84137 3.19071 5.45286 4.0285 4.4254 5.23062C3.39795 6.43273 2.78661 7.93478 2.68256 9.51273C2.57851 11.0907 2.98732 12.66 3.84803 13.9866C4.70874 15.3132 5.97523 16.3261 7.45861 16.8741C8.94199 17.4222 10.5628 17.476 12.0793 17.0276C13.5957 16.5792 14.9267 15.6527 15.8735 14.3861C16.8204 13.1195 17.3324 11.5808 17.3333 9.99943V9.23333C17.3333 8.68105 17.781 8.23333 18.3333 8.23333C18.8856 8.23333 19.3333 8.68105 19.3333 9.23333V10C19.3322 12.0127 18.6805 13.9716 17.4754 15.5836C16.2703 17.1956 14.5764 18.3749 12.6463 18.9455C10.7163 19.5162 8.65344 19.4477 6.7655 18.7502C4.87756 18.0527 3.26567 16.7636 2.17022 15.0752C1.07478 13.3867 0.554466 11.3894 0.686893 9.38113C0.81932 7.37283 1.59739 5.46114 2.90506 3.93117C4.21272 2.4012 5.97993 1.33493 7.94311 0.891374C9.90628 0.44782 11.9602 0.650752 13.7987 1.46991C14.3031 1.69469 14.5299 2.28586 14.3051 2.79033C14.0803 3.29481 13.4891 3.52154 12.9847 3.29676Z" fill="#156B2D"/>
<path fill-rule="evenodd" clip-rule="evenodd" d="M19.0401 2.62588C19.4308 3.01621 19.4311 3.64938 19.0408 4.0401L10.7075 12.3818C10.52 12.5695 10.2656 12.6749 10.0002 12.675C9.73495 12.6751 9.48049 12.5697 9.29289 12.3821L6.79289 9.88212C6.40237 9.49159 6.40237 8.85843 6.79289 8.4679C7.18342 8.07738 7.81658 8.07738 8.20711 8.4679L9.99965 10.2604L17.6259 2.62659C18.0162 2.23587 18.6494 2.23555 19.0401 2.62588Z" fill="#156B2D"/>
</svg>
