<svg width="18" height="17" viewBox="0 0 18 17" fill="none" xmlns="http://www.w3.org/2000/svg">
<path fill-rule="evenodd" clip-rule="evenodd" d="M8 15.6667C8 15.1144 8.44771 14.6667 9 14.6667H16.5C17.0523 14.6667 17.5 15.1144 17.5 15.6667C17.5 16.2189 17.0523 16.6667 16.5 16.6667H9C8.44771 16.6667 8 16.2189 8 15.6667Z" fill="#3E3B3B"/>
<path fill-rule="evenodd" clip-rule="evenodd" d="M14 2.3989C13.7964 2.3989 13.6011 2.47978 13.4571 2.62377L3.2363 12.8446L2.87437 14.2923L4.32208 13.9304L14.5429 3.70956C14.6142 3.63826 14.6707 3.55362 14.7093 3.46047C14.7479 3.36732 14.7678 3.26749 14.7678 3.16666C14.7678 3.06584 14.7479 2.966 14.7093 2.87285C14.6707 2.7797 14.6142 2.69506 14.5429 2.62377C14.4716 2.55248 14.387 2.49592 14.2938 2.45734C14.2007 2.41875 14.1008 2.3989 14 2.3989ZM12.0429 1.20956C12.5619 0.690498 13.2659 0.398895 14 0.398895C14.3635 0.398895 14.7234 0.470486 15.0592 0.609579C15.395 0.748672 15.7001 0.952544 15.9571 1.20956C16.2141 1.46657 16.418 1.77168 16.5571 2.10748C16.6962 2.44328 16.7678 2.80319 16.7678 3.16666C16.7678 3.53013 16.6962 3.89004 16.5571 4.22584C16.418 4.56164 16.2141 4.86676 15.9571 5.12377L5.54044 15.5404C5.41228 15.6686 5.2517 15.7595 5.07587 15.8035L1.74254 16.6368C1.40176 16.722 1.04127 16.6222 0.792893 16.3738C0.544513 16.1254 0.444664 15.7649 0.529857 15.4241L1.36319 12.0908C1.40715 11.915 1.49807 11.7544 1.62623 11.6262L12.0429 1.20956Z" fill="#3E3B3B"/>
</svg>
