<svg width="23" height="22" viewBox="0 0 23 22" fill="none" xmlns="http://www.w3.org/2000/svg">
<path fill-rule="evenodd" clip-rule="evenodd" d="M4 2C2.89543 2 2 2.89543 2 4C2 5.10457 2.89543 6 4 6C5.10457 6 6 5.10457 6 4C6 2.89543 5.10457 2 4 2ZM0 4C0 1.79086 1.79086 0 4 0C6.01074 0 7.67496 1.48364 7.95766 3.41592C7.97303 3.41528 7.98848 3.41498 8.00402 3.41505L15.0384 3.44333C15.3093 1.49769 16.9798 0 19 0C21.2091 0 23 1.79086 23 4C23 5.70035 21.9391 7.1529 20.443 7.73179L20.421 14.2597C21.9286 14.8328 23 16.2913 23 18C23 20.2091 21.2091 22 19 22C17.2784 22 15.8109 20.9124 15.2469 19.3868C15.139 19.4261 15.0225 19.4473 14.9009 19.4468L7.74137 19.418C7.16906 20.9272 5.70981 22 4 22C1.79086 22 5.96046e-08 20.2091 5.96046e-08 18C5.96046e-08 15.9873 1.48659 14.3217 3.42168 14.0415L3.44225 7.96142C1.49713 7.69006 0 6.01987 0 4ZM5.44304 7.73179L5.42095 14.2597C6.75446 14.7666 7.74667 15.9662 7.95809 17.4189L14.909 17.4468C14.9523 17.447 14.9949 17.4499 15.0368 17.4554C15.2766 15.6932 16.6642 14.296 18.4217 14.0415L18.4423 7.96142C16.9875 7.75847 15.7834 6.77314 15.2687 5.44427L7.99598 5.41503C7.91246 5.4147 7.83137 5.40413 7.7539 5.38453C7.35699 6.46032 6.51084 7.3186 5.44304 7.73179ZM19 2C17.8954 2 17 2.89543 17 4C17 5.10457 17.8954 6 19 6C20.1046 6 21 5.10457 21 4C21 2.89543 20.1046 2 19 2ZM4 16C2.89543 16 2 16.8954 2 18C2 19.1046 2.89543 20 4 20C5.10457 20 6 19.1046 6 18C6 16.8954 5.10457 16 4 16ZM19 16C17.8954 16 17 16.8954 17 18C17 19.1046 17.8954 20 19 20C20.1046 20 21 19.1046 21 18C21 16.8954 20.1046 16 19 16Z" fill="#3E3B3B"/>
<path d="M15.392 10.304H14.732L14.384 8.864H12.212V15.14L13.22 15.5V16.16H10.172V15.5L11.18 15.14V8.864H9.008L8.66 10.304H8V8H15.392V10.304Z" fill="#3E3B3B"/>
</svg>
