<svg width="21" height="23" viewBox="0 0 21 23" fill="none" xmlns="http://www.w3.org/2000/svg">
<path fill-rule="evenodd" clip-rule="evenodd" d="M0.125 5.25C0.125 4.69772 0.572715 4.25 1.125 4.25H19.875C20.4273 4.25 20.875 4.69772 20.875 5.25C20.875 5.80228 20.4273 6.25 19.875 6.25H1.125C0.572715 6.25 0.125 5.80228 0.125 5.25Z" fill="#3E3B3B"/>
<path fill-rule="evenodd" clip-rule="evenodd" d="M8.41668 2.08334C8.12936 2.08334 7.85381 2.19747 7.65065 2.40064C7.44748 2.6038 7.33334 2.87935 7.33334 3.16667V4.25H13.6667V3.16667C13.6667 2.87935 13.5525 2.6038 13.3494 2.40064C13.1462 2.19747 12.8707 2.08334 12.5833 2.08334H8.41668ZM15.6667 4.25V3.16667C15.6667 2.34892 15.3418 1.56466 14.7636 0.986423C14.1854 0.408186 13.4011 0.0833359 12.5833 0.0833359H8.41668C7.59893 0.0833359 6.81467 0.408186 6.23643 0.986423C5.65819 1.56466 5.33334 2.34892 5.33334 3.16667V4.25H3.20834C2.65606 4.25 2.20834 4.69772 2.20834 5.25V19.8333C2.20834 20.6511 2.53319 21.4353 3.11143 22.0136C3.68967 22.5918 4.47393 22.9167 5.29168 22.9167H15.7083C16.5261 22.9167 17.3104 22.5918 17.8886 22.0136C18.4668 21.4353 18.7917 20.6511 18.7917 19.8333V5.25C18.7917 4.69772 18.344 4.25 17.7917 4.25H15.6667ZM4.20834 6.25V19.8333C4.20834 20.1207 4.32248 20.3962 4.52564 20.5994C4.72881 20.8025 5.00436 20.9167 5.29168 20.9167H15.7083C15.9957 20.9167 16.2712 20.8025 16.4744 20.5994C16.6775 20.3962 16.7917 20.1207 16.7917 19.8333V6.25H4.20834Z" fill="#3E3B3B"/>
<path fill-rule="evenodd" clip-rule="evenodd" d="M8.41666 9.45834C8.96894 9.45834 9.41666 9.90605 9.41666 10.4583V16.7083C9.41666 17.2606 8.96894 17.7083 8.41666 17.7083C7.86437 17.7083 7.41666 17.2606 7.41666 16.7083V10.4583C7.41666 9.90605 7.86437 9.45834 8.41666 9.45834Z" fill="#3E3B3B"/>
<path fill-rule="evenodd" clip-rule="evenodd" d="M12.5833 9.45834C13.1356 9.45834 13.5833 9.90605 13.5833 10.4583V16.7083C13.5833 17.2606 13.1356 17.7083 12.5833 17.7083C12.0311 17.7083 11.5833 17.2606 11.5833 16.7083V10.4583C11.5833 9.90605 12.0311 9.45834 12.5833 9.45834Z" fill="#3E3B3B"/>
</svg>
