<svg width="25" height="25" viewBox="0 0 25 25" fill="none" xmlns="http://www.w3.org/2000/svg">
<path d="M3.125 6.25H5.20833H21.875" stroke="#3E3B3B" stroke-width="2" stroke-linecap="round" stroke-linejoin="round"/>
<path d="M8.33331 6.25V4.16667C8.33331 3.61413 8.55281 3.08423 8.94351 2.69353C9.33421 2.30283 9.86411 2.08333 10.4166 2.08333H14.5833C15.1358 2.08333 15.6658 2.30283 16.0565 2.69353C16.4472 3.08423 16.6666 3.61413 16.6666 4.16667V6.25M19.7916 6.25V20.8333C19.7916 21.3859 19.5722 21.9158 19.1815 22.3065C18.7908 22.6972 18.2608 22.9167 17.7083 22.9167H7.29165C6.73911 22.9167 6.20921 22.6972 5.81851 22.3065C5.42781 21.9158 5.20831 21.3859 5.20831 20.8333V6.25H19.7916Z" stroke="#3E3B3B" stroke-width="2" stroke-linecap="round" stroke-linejoin="round"/>
<path d="M10.4167 11.4583V17.7083" stroke="#3E3B3B" stroke-width="2" stroke-linecap="round" stroke-linejoin="round"/>
<path d="M14.5833 11.4583V17.7083" stroke="#3E3B3B" stroke-width="2" stroke-linecap="round" stroke-linejoin="round"/>
</svg>
